<svg xmlns="http://www.w3.org/2000/svg" version="1.1" xmlns:xlink="http://www.w3.org/1999/xlink" xmlns:svgjs="http://svgjs.dev/svgjs" viewBox="0 0 2400 800"><defs><linearGradient x1="50%" y1="0%" x2="50%" y2="100%" id="sssurf-grad"><stop stop-color="hsl(208, 77%, 50%)" stop-opacity="1" offset="0%"></stop><stop stop-color="hsl(208, 74%, 93%)" stop-opacity="1" offset="100%"></stop></linearGradient></defs><g fill="url(#sssurf-grad)" transform="matrix(1,0,0,1,10.8282470703125,225.05577087402344)"><path d="M-10,10C33.75,13.541666666666668,114.58333333333334,31.791666666666668,200,27C285.41666666666663,22.208333333333332,316.66666666666663,-14.458333333333334,400,-13C483.33333333333337,-11.541666666666666,516.6666666666666,37.541666666666664,600,34C683.3333333333334,30.458333333333332,716.6666666666666,-33.125,800,-30C883.3333333333334,-26.875,916.6666666666666,45.666666666666664,1000,49C1083.3333333333333,52.333333333333336,1116.6666666666667,-12.333333333333334,1200,-14C1283.3333333333333,-15.666666666666666,1316.6666666666667,42.25,1400,41C1483.3333333333333,39.75,1516.6666666666667,-19.791666666666668,1600,-20C1683.3333333333333,-20.208333333333332,1716.6666666666667,34.791666666666664,1800,40C1883.3333333333333,45.208333333333336,1916.6666666666667,4.375,2000,5C2083.3333333333335,5.625,2118.75,41.958333333333336,2200,43C2281.25,44.041666666666664,2296.25,-64.375,2390,10C2483.75,84.375,3252.0833333333335,214.58333333333331,2650,400C2047.9166666666665,585.4166666666667,156.25,795.8333333333334,-500,900" transform="matrix(1,0,0,1,0,35)" opacity="0.05"></path><path d="M-10,10C33.75,13.541666666666668,114.58333333333334,31.791666666666668,200,27C285.41666666666663,22.208333333333332,316.66666666666663,-14.458333333333334,400,-13C483.33333333333337,-11.541666666666666,516.6666666666666,37.541666666666664,600,34C683.3333333333334,30.458333333333332,716.6666666666666,-33.125,800,-30C883.3333333333334,-26.875,916.6666666666666,45.666666666666664,1000,49C1083.3333333333333,52.333333333333336,1116.6666666666667,-12.333333333333334,1200,-14C1283.3333333333333,-15.666666666666666,1316.6666666666667,42.25,1400,41C1483.3333333333333,39.75,1516.6666666666667,-19.791666666666668,1600,-20C1683.3333333333333,-20.208333333333332,1716.6666666666667,34.791666666666664,1800,40C1883.3333333333333,45.208333333333336,1916.6666666666667,4.375,2000,5C2083.3333333333335,5.625,2118.75,41.958333333333336,2200,43C2281.25,44.041666666666664,2296.25,-64.375,2390,10C2483.75,84.375,3252.0833333333335,214.58333333333331,2650,400C2047.9166666666665,585.4166666666667,156.25,795.8333333333334,-500,900" transform="matrix(1,0,0,1,0,70)" opacity="0.21"></path><path d="M-10,10C33.75,13.541666666666668,114.58333333333334,31.791666666666668,200,27C285.41666666666663,22.208333333333332,316.66666666666663,-14.458333333333334,400,-13C483.33333333333337,-11.541666666666666,516.6666666666666,37.541666666666664,600,34C683.3333333333334,30.458333333333332,716.6666666666666,-33.125,800,-30C883.3333333333334,-26.875,916.6666666666666,45.666666666666664,1000,49C1083.3333333333333,52.333333333333336,1116.6666666666667,-12.333333333333334,1200,-14C1283.3333333333333,-15.666666666666666,1316.6666666666667,42.25,1400,41C1483.3333333333333,39.75,1516.6666666666667,-19.791666666666668,1600,-20C1683.3333333333333,-20.208333333333332,1716.6666666666667,34.791666666666664,1800,40C1883.3333333333333,45.208333333333336,1916.6666666666667,4.375,2000,5C2083.3333333333335,5.625,2118.75,41.958333333333336,2200,43C2281.25,44.041666666666664,2296.25,-64.375,2390,10C2483.75,84.375,3252.0833333333335,214.58333333333331,2650,400C2047.9166666666665,585.4166666666667,156.25,795.8333333333334,-500,900" transform="matrix(1,0,0,1,0,105)" opacity="0.37"></path><path d="M-10,10C33.75,13.541666666666668,114.58333333333334,31.791666666666668,200,27C285.41666666666663,22.208333333333332,316.66666666666663,-14.458333333333334,400,-13C483.33333333333337,-11.541666666666666,516.6666666666666,37.541666666666664,600,34C683.3333333333334,30.458333333333332,716.6666666666666,-33.125,800,-30C883.3333333333334,-26.875,916.6666666666666,45.666666666666664,1000,49C1083.3333333333333,52.333333333333336,1116.6666666666667,-12.333333333333334,1200,-14C1283.3333333333333,-15.666666666666666,1316.6666666666667,42.25,1400,41C1483.3333333333333,39.75,1516.6666666666667,-19.791666666666668,1600,-20C1683.3333333333333,-20.208333333333332,1716.6666666666667,34.791666666666664,1800,40C1883.3333333333333,45.208333333333336,1916.6666666666667,4.375,2000,5C2083.3333333333335,5.625,2118.75,41.958333333333336,2200,43C2281.25,44.041666666666664,2296.25,-64.375,2390,10C2483.75,84.375,3252.0833333333335,214.58333333333331,2650,400C2047.9166666666665,585.4166666666667,156.25,795.8333333333334,-500,900" transform="matrix(1,0,0,1,0,140)" opacity="0.53"></path><path d="M-10,10C33.75,13.541666666666668,114.58333333333334,31.791666666666668,200,27C285.41666666666663,22.208333333333332,316.66666666666663,-14.458333333333334,400,-13C483.33333333333337,-11.541666666666666,516.6666666666666,37.541666666666664,600,34C683.3333333333334,30.458333333333332,716.6666666666666,-33.125,800,-30C883.3333333333334,-26.875,916.6666666666666,45.666666666666664,1000,49C1083.3333333333333,52.333333333333336,1116.6666666666667,-12.333333333333334,1200,-14C1283.3333333333333,-15.666666666666666,1316.6666666666667,42.25,1400,41C1483.3333333333333,39.75,1516.6666666666667,-19.791666666666668,1600,-20C1683.3333333333333,-20.208333333333332,1716.6666666666667,34.791666666666664,1800,40C1883.3333333333333,45.208333333333336,1916.6666666666667,4.375,2000,5C2083.3333333333335,5.625,2118.75,41.958333333333336,2200,43C2281.25,44.041666666666664,2296.25,-64.375,2390,10C2483.75,84.375,3252.0833333333335,214.58333333333331,2650,400C2047.9166666666665,585.4166666666667,156.25,795.8333333333334,-500,900" transform="matrix(1,0,0,1,0,175)" opacity="0.68"></path><path d="M-10,10C33.75,13.541666666666668,114.58333333333334,31.791666666666668,200,27C285.41666666666663,22.208333333333332,316.66666666666663,-14.458333333333334,400,-13C483.33333333333337,-11.541666666666666,516.6666666666666,37.541666666666664,600,34C683.3333333333334,30.458333333333332,716.6666666666666,-33.125,800,-30C883.3333333333334,-26.875,916.6666666666666,45.666666666666664,1000,49C1083.3333333333333,52.333333333333336,1116.6666666666667,-12.333333333333334,1200,-14C1283.3333333333333,-15.666666666666666,1316.6666666666667,42.25,1400,41C1483.3333333333333,39.75,1516.6666666666667,-19.791666666666668,1600,-20C1683.3333333333333,-20.208333333333332,1716.6666666666667,34.791666666666664,1800,40C1883.3333333333333,45.208333333333336,1916.6666666666667,4.375,2000,5C2083.3333333333335,5.625,2118.75,41.958333333333336,2200,43C2281.25,44.041666666666664,2296.25,-64.375,2390,10C2483.75,84.375,3252.0833333333335,214.58333333333331,2650,400C2047.9166666666665,585.4166666666667,156.25,795.8333333333334,-500,900" transform="matrix(1,0,0,1,0,210)" opacity="0.84"></path><path d="M-10,10C33.75,13.541666666666668,114.58333333333334,31.791666666666668,200,27C285.41666666666663,22.208333333333332,316.66666666666663,-14.458333333333334,400,-13C483.33333333333337,-11.541666666666666,516.6666666666666,37.541666666666664,600,34C683.3333333333334,30.458333333333332,716.6666666666666,-33.125,800,-30C883.3333333333334,-26.875,916.6666666666666,45.666666666666664,1000,49C1083.3333333333333,52.333333333333336,1116.6666666666667,-12.333333333333334,1200,-14C1283.3333333333333,-15.666666666666666,1316.6666666666667,42.25,1400,41C1483.3333333333333,39.75,1516.6666666666667,-19.791666666666668,1600,-20C1683.3333333333333,-20.208333333333332,1716.6666666666667,34.791666666666664,1800,40C1883.3333333333333,45.208333333333336,1916.6666666666667,4.375,2000,5C2083.3333333333335,5.625,2118.75,41.958333333333336,2200,43C2281.25,44.041666666666664,2296.25,-64.375,2390,10C2483.75,84.375,3252.0833333333335,214.58333333333331,2650,400C2047.9166666666665,585.4166666666667,156.25,795.8333333333334,-500,900" transform="matrix(1,0,0,1,0,245)" opacity="1"></path></g></svg>