<svg id="wave" style="transform:rotate(0deg); transition: 0.3s" viewBox="0 0 1440 140" version="1.1" xmlns="http://www.w3.org/2000/svg"><defs><linearGradient id="sw-gradient-0" x1="0" x2="0" y1="1" y2="0"><stop stop-color="rgba(242, 242, 242, 1)" offset="0%"></stop><stop stop-color="rgba(242, 242, 242, 1)" offset="100%"></stop></linearGradient></defs><path style="transform:translate(0, 0px); opacity:1" fill="url(#sw-gradient-0)" d="M0,70L30,67.7C60,65,120,61,180,51.3C240,42,300,28,360,25.7C420,23,480,33,540,46.7C600,61,660,79,720,84C780,89,840,79,900,81.7C960,84,1020,98,1080,98C1140,98,1200,84,1260,67.7C1320,51,1380,33,1440,37.3C1500,42,1560,70,1620,88.7C1680,107,1740,117,1800,112C1860,107,1920,89,1980,86.3C2040,84,2100,98,2160,95.7C2220,93,2280,75,2340,65.3C2400,56,2460,56,2520,49C2580,42,2640,28,2700,28C2760,28,2820,42,2880,42C2940,42,3000,28,3060,37.3C3120,47,3180,79,3240,91C3300,103,3360,93,3420,86.3C3480,79,3540,75,3600,72.3C3660,70,3720,70,3780,65.3C3840,61,3900,51,3960,44.3C4020,37,4080,33,4140,37.3C4200,42,4260,56,4290,63L4320,70L4320,140L4290,140C4260,140,4200,140,4140,140C4080,140,4020,140,3960,140C3900,140,3840,140,3780,140C3720,140,3660,140,3600,140C3540,140,3480,140,3420,140C3360,140,3300,140,3240,140C3180,140,3120,140,3060,140C3000,140,2940,140,2880,140C2820,140,2760,140,2700,140C2640,140,2580,140,2520,140C2460,140,2400,140,2340,140C2280,140,2220,140,2160,140C2100,140,2040,140,1980,140C1920,140,1860,140,1800,140C1740,140,1680,140,1620,140C1560,140,1500,140,1440,140C1380,140,1320,140,1260,140C1200,140,1140,140,1080,140C1020,140,960,140,900,140C840,140,780,140,720,140C660,140,600,140,540,140C480,140,420,140,360,140C300,140,240,140,180,140C120,140,60,140,30,140L0,140Z"></path></svg>